<svg width="52" height="40" viewBox="0 0 52 40" fill="none" xmlns="http://www.w3.org/2000/svg">
<path d="M21.3145 21.9375V21.4273C21.3145 21.3094 21.4098 21.2338 21.5122 21.2338H22.0696H22.1696V21.1338V15.3255C22.1696 15.1454 22.2055 15.0152 22.2779 14.9345C22.3502 14.8537 22.4297 14.8026 22.5156 14.7846L21.3145 21.9375ZM21.3145 21.9375C21.3139 22.0433 21.4075 22.1363 21.5104 22.1363H22.069L21.3145 21.9375ZM25.0009 13.1488C28.47 13.1488 31.2943 15.9368 31.2943 19.3645C31.2943 22.7924 28.4688 25.5791 25.0009 25.5791C21.5312 25.5791 18.7069 22.7918 18.7068 19.3646L25.0009 13.1488ZM25.0009 13.1488C21.5312 13.1488 18.7063 15.9368 18.7068 19.3645L25.0009 13.1488ZM40.4403 13.587V13.487H40.3403H37.3118V11.5858H42.369V16.5777H40.4403V13.587ZM42.3713 22.1253V27.1154H37.313V25.2136H40.3409H40.4409V25.1136V22.1253H42.3713ZM9.66026 25.2142H12.6894V27.1165H7.63163V22.1253H9.55969L9.56026 25.1143L9.56028 25.2142H9.66026ZM9.65909 13.4876H9.5591L9.55909 13.5875L9.55852 16.5777H7.63104V11.5864H12.6882V13.4876H9.65909ZM43.8714 28.728H43.9714V28.628L43.972 10.1011L43.972 10.0011H43.872H6.12922H6.02922V10.1011V28.628V28.728H6.12922H43.8714ZM22.269 22.1363V22.0363H22.169H21.5104C21.4631 22.0363 21.4142 21.9886 21.4145 21.9381V21.9375V21.4273C21.4145 21.3725 21.4568 21.3338 21.5122 21.3338H22.1696H22.2696V21.2338V15.3255C22.2696 15.1547 22.3043 15.0548 22.3523 15.0012C22.4146 14.9317 22.4764 14.895 22.5361 14.8824L22.5364 14.8824C22.8886 14.8077 23.2796 14.7465 23.7095 14.6992C24.1382 14.6525 24.5482 14.6289 24.9385 14.6289C25.4614 14.6289 25.9473 14.6777 26.3955 14.7754C26.841 14.873 27.2255 15.0329 27.5502 15.2526C27.8733 15.4715 28.1264 15.7568 28.3107 16.1135L28.3107 16.1135C28.4934 16.4665 28.5873 16.9041 28.5873 17.4348C28.5873 17.9649 28.4918 18.4176 28.3033 18.8003C28.1134 19.186 27.8518 19.5064 27.5198 19.7624C27.1858 20.0192 26.7875 20.2132 26.3239 20.3432C25.8588 20.4736 25.353 20.5394 24.8055 20.5394H23.9427H23.8427V20.6394V21.235V21.335H23.9427H26.0066C26.055 21.335 26.1038 21.3833 26.1038 21.4326V21.9428C26.1038 21.998 26.0616 22.0363 26.0066 22.0363H23.9427H23.8427V22.1363V23.8283C23.8427 23.9087 23.8171 23.9701 23.7677 24.0229C23.7206 24.0725 23.6613 24.0985 23.579 24.0985H22.5462C22.4637 24.0985 22.4002 24.0722 22.3484 24.0207L22.3478 24.0201C22.2946 23.9679 22.269 23.9079 22.269 23.8283V22.1363ZM23.9082 15.9174L23.8427 15.9415V16.0112V19.2716V19.3716H23.9427H24.799C25.4715 19.3716 26.0127 19.2134 26.4125 18.8858C26.8154 18.5559 27.0135 18.0913 27.0135 17.5063C27.0135 16.9507 26.8296 16.5152 26.4543 16.217C26.0844 15.9231 25.58 15.7822 24.9573 15.7822C24.7063 15.7822 24.4955 15.7957 24.329 15.8192L24.3284 15.8193C24.1623 15.8437 24.0213 15.8757 23.9082 15.9174ZM4.1 30.6297V8.1H45.9V30.6297H4.1ZM33.223 19.3645C33.223 23.8387 29.5354 27.4815 25.0009 27.4815C20.4657 27.4815 16.7782 23.8387 16.7782 19.3645C16.7782 14.8892 20.4657 11.2465 25.0009 11.2465C29.5354 11.2465 33.223 14.8892 33.223 19.3645Z" fill="white" stroke="#00CFCC" stroke-width="0.2"/>
</svg>
