<svg width="66" height="72" viewBox="0 0 66 72" fill="none" xmlns="http://www.w3.org/2000/svg">
<mask id="path-1-inside-1" fill="white">
<path d="M44.6893 41.9973L43.9553 35.1416C44.8814 33.7094 45.5658 32.1348 45.9812 30.4806C47.229 29.5264 47.9484 27.5446 48.4915 25.6141C49.321 22.6781 49.2255 20.7403 48.2273 19.5072C48.0919 19.3422 47.9393 19.1921 47.7722 19.0594L47.8383 18.7364C48.7117 13.4883 48.1906 9.60532 46.2895 7.19776C45.5802 6.27145 44.6159 5.57244 43.5149 5.18657C42.5701 3.91368 41.3574 2.86378 39.9623 2.11105C37.5808 0.723904 34.8207 0.127693 32.079 0.408144C30.9821 0.462911 29.8979 0.667898 28.8567 1.01737C27.6464 1.43036 26.5 2.01099 25.4509 2.7423C24.1907 3.53205 23.0363 4.47922 22.0157 5.56091C20.1533 7.39167 18.8368 9.70437 18.2135 12.2404C17.7173 14.3823 17.7173 16.6093 18.2135 18.7511C18.2135 18.8539 18.2502 18.9493 18.2722 19.0521C18.1141 19.1793 17.969 19.3219 17.8392 19.4778C16.8115 20.7036 16.7235 22.6561 17.5602 25.5995C18.0961 27.5373 18.8081 29.5191 20.0559 30.4733C20.468 32.1677 21.1575 33.7823 22.0964 35.2517L21.3624 41.99C17.3841 43.0323 5.82338 46.9959 1.16974 58.7989C0.630178 60.1752 0.435717 61.6628 0.603327 63.1316C0.770936 64.6004 1.29552 66.0059 2.13129 67.2253C2.97442 68.4681 4.10885 69.4858 5.43562 70.1895C6.76238 70.8932 8.24118 71.2615 9.743 71.2624H56.3014C57.8044 71.2621 59.2844 70.894 60.6125 70.1903C61.9405 69.4867 63.0762 68.4687 63.9205 67.2253C64.7545 66.005 65.2774 64.5993 65.4437 63.1306C65.61 61.6619 65.4147 60.1748 64.8747 58.7989C60.2284 47.0033 48.6677 43.0323 44.6893 41.9973ZM21.7955 13.1212C22.273 11.211 23.2747 9.4721 24.6875 8.1006C25.5131 7.22145 26.448 6.4518 27.4694 5.81048C28.2533 5.25827 29.1106 4.81848 30.0164 4.50393C30.7517 4.25678 31.5172 4.11108 32.2919 4.07087C34.3301 3.8376 36.3893 4.26745 38.164 5.29667C39.2162 5.83586 40.1093 6.64045 40.755 7.63083C40.8962 7.90646 41.1049 8.14186 41.3616 8.31513C41.6183 8.48839 41.9146 8.59387 42.2231 8.62175C42.6927 8.77027 43.102 9.06629 43.3901 9.46586C43.8526 10.0531 44.4618 11.2715 44.5499 13.6204C44.4541 13.464 44.3353 13.323 44.1976 13.202L40.6009 10.1191C40.3683 9.92417 40.091 9.78993 39.7938 9.72844C39.4966 9.66695 39.1888 9.68014 38.898 9.76681L23.2562 14.0241C22.906 14.12 22.5921 14.3177 22.3543 14.5921C22.1165 14.8665 21.9655 15.2052 21.9203 15.5655L21.6854 17.4005C21.4173 15.9825 21.4548 14.5236 21.7955 13.1212ZM21.1055 24.6159C20.8837 23.8996 20.7409 23.1612 20.6798 22.4138L22.324 23.1479C22.5862 23.2606 22.871 23.3107 23.156 23.294C23.4409 23.2774 23.718 23.1945 23.9653 23.052C24.2126 22.9094 24.4232 22.7112 24.5804 22.473C24.7376 22.2348 24.8371 21.9632 24.871 21.6798L25.4362 17.2758L38.964 13.6057L41.2615 15.5582L41.9074 21.6578C41.9507 21.9682 42.0727 22.2624 42.2619 22.5123C42.451 22.7621 42.701 22.9594 42.9881 23.0853C43.2751 23.2111 43.5896 23.2613 43.9015 23.2312C44.2135 23.201 44.5125 23.0915 44.7701 22.913L45.3279 22.5093C45.2622 23.2211 45.1245 23.9245 44.9169 24.6085C44.6975 25.6165 44.3131 26.5812 43.7792 27.4639C43.4501 27.5642 43.1558 27.7551 42.93 28.0146C42.7041 28.2742 42.5558 28.5921 42.502 28.9319C42.0102 32.1322 39.3531 36.272 35.3821 37.74C33.8188 38.3027 32.1082 38.3027 30.5449 37.74C26.5739 36.3381 23.9829 32.2496 23.4764 28.9319C23.4225 28.5921 23.2742 28.2742 23.0484 28.0146C22.8226 27.7551 22.5283 27.5642 22.1992 27.4639C21.68 26.5788 21.3104 25.614 21.1055 24.6085V24.6159ZM41.1 42.8488L38.2594 45.8876L34.3398 41.9679C34.2671 41.8999 34.1885 41.8385 34.1049 41.7844C34.9818 41.6975 35.8447 41.5028 36.6739 41.2046C38.1289 40.6677 39.4798 39.883 40.667 38.8851L41.1 42.8488ZM31.9469 41.7918C31.8686 41.8441 31.7949 41.9031 31.7267 41.9679L27.8071 45.8876L24.9517 42.8488L25.3775 38.9732C26.5636 39.9446 27.9099 40.7021 29.3558 41.2119C30.1924 41.5109 31.0627 41.7057 31.9469 41.7918ZM9.75034 67.5923C8.84112 67.5983 7.94439 67.3805 7.13923 66.9581C6.33407 66.5357 5.64521 65.9216 5.1334 65.1701C4.6306 64.4471 4.3151 63.6106 4.21517 62.7356C4.11525 61.8606 4.23403 60.9745 4.56087 60.1568C8.61262 49.8806 19.1824 46.372 22.4047 45.5279L28.4677 52.0092L24.3792 67.5923H9.75034ZM28.1741 67.5923L32.3433 51.8184C32.4516 51.4133 32.4179 50.9833 32.2478 50.5999L31.022 47.8547L33.0259 45.8582L35.0297 47.8621L33.8039 50.6073C33.6338 50.9906 33.6002 51.4206 33.7085 51.8257L37.8777 67.5923H28.1741ZM60.9184 65.1701C60.4109 65.9178 59.7282 66.5301 58.9299 66.9536C58.1316 67.377 57.2418 67.5988 56.3381 67.5997H41.6726L37.5547 52.0019L43.6177 45.5206C46.84 46.372 57.4098 49.8733 61.4615 60.1494C61.7939 60.9658 61.9182 61.852 61.8234 62.7283C61.7286 63.6046 61.4176 64.4437 60.9184 65.1701Z"/>
</mask>
<path d="M44.6893 41.9973L43.9553 35.1416C44.8814 33.7094 45.5658 32.1348 45.9812 30.4806C47.229 29.5264 47.9484 27.5446 48.4915 25.6141C49.321 22.6781 49.2255 20.7403 48.2273 19.5072C48.0919 19.3422 47.9393 19.1921 47.7722 19.0594L47.8383 18.7364C48.7117 13.4883 48.1906 9.60532 46.2895 7.19776C45.5802 6.27145 44.6159 5.57244 43.5149 5.18657C42.5701 3.91368 41.3574 2.86378 39.9623 2.11105C37.5808 0.723904 34.8207 0.127693 32.079 0.408144C30.9821 0.462911 29.8979 0.667898 28.8567 1.01737C27.6464 1.43036 26.5 2.01099 25.4509 2.7423C24.1907 3.53205 23.0363 4.47922 22.0157 5.56091C20.1533 7.39167 18.8368 9.70437 18.2135 12.2404C17.7173 14.3823 17.7173 16.6093 18.2135 18.7511C18.2135 18.8539 18.2502 18.9493 18.2722 19.0521C18.1141 19.1793 17.969 19.3219 17.8392 19.4778C16.8115 20.7036 16.7235 22.6561 17.5602 25.5995C18.0961 27.5373 18.8081 29.5191 20.0559 30.4733C20.468 32.1677 21.1575 33.7823 22.0964 35.2517L21.3624 41.99C17.3841 43.0323 5.82338 46.9959 1.16974 58.7989C0.630178 60.1752 0.435717 61.6628 0.603327 63.1316C0.770936 64.6004 1.29552 66.0059 2.13129 67.2253C2.97442 68.4681 4.10885 69.4858 5.43562 70.1895C6.76238 70.8932 8.24118 71.2615 9.743 71.2624H56.3014C57.8044 71.2621 59.2844 70.894 60.6125 70.1903C61.9405 69.4867 63.0762 68.4687 63.9205 67.2253C64.7545 66.005 65.2774 64.5993 65.4437 63.1306C65.61 61.6619 65.4147 60.1748 64.8747 58.7989C60.2284 47.0033 48.6677 43.0323 44.6893 41.9973ZM21.7955 13.1212C22.273 11.211 23.2747 9.4721 24.6875 8.1006C25.5131 7.22145 26.448 6.4518 27.4694 5.81048C28.2533 5.25827 29.1106 4.81848 30.0164 4.50393C30.7517 4.25678 31.5172 4.11108 32.2919 4.07087C34.3301 3.8376 36.3893 4.26745 38.164 5.29667C39.2162 5.83586 40.1093 6.64045 40.755 7.63083C40.8962 7.90646 41.1049 8.14186 41.3616 8.31513C41.6183 8.48839 41.9146 8.59387 42.2231 8.62175C42.6927 8.77027 43.102 9.06629 43.3901 9.46586C43.8526 10.0531 44.4618 11.2715 44.5499 13.6204C44.4541 13.464 44.3353 13.323 44.1976 13.202L40.6009 10.1191C40.3683 9.92417 40.091 9.78993 39.7938 9.72844C39.4966 9.66695 39.1888 9.68014 38.898 9.76681L23.2562 14.0241C22.906 14.12 22.5921 14.3177 22.3543 14.5921C22.1165 14.8665 21.9655 15.2052 21.9203 15.5655L21.6854 17.4005C21.4173 15.9825 21.4548 14.5236 21.7955 13.1212ZM21.1055 24.6159C20.8837 23.8996 20.7409 23.1612 20.6798 22.4138L22.324 23.1479C22.5862 23.2606 22.871 23.3107 23.156 23.294C23.4409 23.2774 23.718 23.1945 23.9653 23.052C24.2126 22.9094 24.4232 22.7112 24.5804 22.473C24.7376 22.2348 24.8371 21.9632 24.871 21.6798L25.4362 17.2758L38.964 13.6057L41.2615 15.5582L41.9074 21.6578C41.9507 21.9682 42.0727 22.2624 42.2619 22.5123C42.451 22.7621 42.701 22.9594 42.9881 23.0853C43.2751 23.2111 43.5896 23.2613 43.9015 23.2312C44.2135 23.201 44.5125 23.0915 44.7701 22.913L45.3279 22.5093C45.2622 23.2211 45.1245 23.9245 44.9169 24.6085C44.6975 25.6165 44.3131 26.5812 43.7792 27.4639C43.4501 27.5642 43.1558 27.7551 42.93 28.0146C42.7041 28.2742 42.5558 28.5921 42.502 28.9319C42.0102 32.1322 39.3531 36.272 35.3821 37.74C33.8188 38.3027 32.1082 38.3027 30.5449 37.74C26.5739 36.3381 23.9829 32.2496 23.4764 28.9319C23.4225 28.5921 23.2742 28.2742 23.0484 28.0146C22.8226 27.7551 22.5283 27.5642 22.1992 27.4639C21.68 26.5788 21.3104 25.614 21.1055 24.6085V24.6159ZM41.1 42.8488L38.2594 45.8876L34.3398 41.9679C34.2671 41.8999 34.1885 41.8385 34.1049 41.7844C34.9818 41.6975 35.8447 41.5028 36.6739 41.2046C38.1289 40.6677 39.4798 39.883 40.667 38.8851L41.1 42.8488ZM31.9469 41.7918C31.8686 41.8441 31.7949 41.9031 31.7267 41.9679L27.8071 45.8876L24.9517 42.8488L25.3775 38.9732C26.5636 39.9446 27.9099 40.7021 29.3558 41.2119C30.1924 41.5109 31.0627 41.7057 31.9469 41.7918ZM9.75034 67.5923C8.84112 67.5983 7.94439 67.3805 7.13923 66.9581C6.33407 66.5357 5.64521 65.9216 5.1334 65.1701C4.6306 64.4471 4.3151 63.6106 4.21517 62.7356C4.11525 61.8606 4.23403 60.9745 4.56087 60.1568C8.61262 49.8806 19.1824 46.372 22.4047 45.5279L28.4677 52.0092L24.3792 67.5923H9.75034ZM28.1741 67.5923L32.3433 51.8184C32.4516 51.4133 32.4179 50.9833 32.2478 50.5999L31.022 47.8547L33.0259 45.8582L35.0297 47.8621L33.8039 50.6073C33.6338 50.9906 33.6002 51.4206 33.7085 51.8257L37.8777 67.5923H28.1741ZM60.9184 65.1701C60.4109 65.9178 59.7282 66.5301 58.9299 66.9536C58.1316 67.377 57.2418 67.5988 56.3381 67.5997H41.6726L37.5547 52.0019L43.6177 45.5206C46.84 46.372 57.4098 49.8733 61.4615 60.1494C61.7939 60.9658 61.9182 61.852 61.8234 62.7283C61.7286 63.6046 61.4176 64.4437 60.9184 65.1701Z" fill="#00CFCC" stroke="white" stroke-width="2" mask="url(#path-1-inside-1)"/>
<path d="M28.2845 25.5628C29.3628 25.5628 30.237 24.6887 30.237 23.6103C30.237 22.532 29.3628 21.6579 28.2845 21.6579C27.2062 21.6579 26.332 22.532 26.332 23.6103C26.332 24.6887 27.2062 25.5628 28.2845 25.5628Z" fill="#FFDD21"/>
<path d="M37.7669 25.5628C38.8452 25.5628 39.7194 24.6887 39.7194 23.6103C39.7194 22.532 38.8452 21.6579 37.7669 21.6579C36.6886 21.6579 35.8145 22.532 35.8145 23.6103C35.8145 24.6887 36.6886 25.5628 37.7669 25.5628Z" fill="#FFDD21"/>
</svg>
