<svg width="68" height="67" viewBox="0 0 68 67" fill="none" xmlns="http://www.w3.org/2000/svg">
<path d="M11.3055 13.3367H10.8055V13.8367V31.3972V31.8972H11.3055H15.9047C16.1674 31.8972 16.3803 32.1102 16.3803 32.3728V43.5224C16.3803 43.7851 16.1674 43.998 15.9047 43.998H9.67951C5.16539 43.998 1.49219 40.3247 1.49219 35.8105V9.42328C1.49219 4.90915 5.16538 1.23596 9.67951 1.23596H15.9047C16.1674 1.23596 16.3803 1.44889 16.3803 1.71155V12.8611C16.3803 13.1238 16.1674 13.3367 15.9047 13.3367H11.3055ZM14.9291 43.0468H15.4291V42.5468V33.3484V32.8484H14.9291H10.3299C10.0673 32.8484 9.85436 32.6355 9.85436 32.3728V12.8611C9.85436 12.5984 10.0673 12.3855 10.3299 12.3855H14.9291H15.4291V11.8855V2.68713V2.18713H14.9291H9.67951C5.68903 2.18713 2.44336 5.4328 2.44336 9.42328V35.8105C2.44336 39.801 5.68901 43.0468 9.67951 43.0468H14.9291Z" fill="#00CFCC" stroke="#00CFCC"/>
<path d="M10.3311 35.6358C10.0684 35.6358 9.85547 35.4229 9.85547 35.1603V32.3729C9.85547 32.1102 10.0684 31.8973 10.3311 31.8973C10.5937 31.8973 10.8066 32.1102 10.8066 32.3729V35.1603C10.8066 35.4229 10.5937 35.6358 10.3311 35.6358Z" fill="#00CFCC" stroke="#00CFCC"/>
<path d="M10.3311 13.3368C10.0684 13.3368 9.85547 13.1239 9.85547 12.8612V10.0739C9.85547 9.81119 10.0684 9.59827 10.3311 9.59827C10.5937 9.59827 10.8066 9.81119 10.8066 10.0739V12.8612C10.8066 13.1239 10.5937 13.3368 10.3311 13.3368Z" fill="#00CFCC" stroke="#00CFCC"/>
<path d="M56.7408 54.1962H57.2408V53.6962V36.1357V35.6357H56.7408H52.1416C51.8789 35.6357 51.666 35.4228 51.666 35.1602V24.0106C51.666 23.7479 51.8789 23.535 52.1416 23.535H58.3668C62.8808 23.535 66.5541 27.2082 66.5541 31.7223V58.1096C66.5541 62.6236 62.8808 66.2969 58.3668 66.2969H52.1416C51.8789 66.2969 51.666 66.084 51.666 65.8213V54.6717C51.666 54.4091 51.8789 54.1962 52.1416 54.1962H56.7408ZM52.6172 64.8457V65.3457H53.1172H58.3668C62.3573 65.3457 65.603 62.0999 65.603 58.1096V31.7223C65.603 27.7318 62.3573 24.4862 58.3668 24.4862H53.1172H52.6172V24.9862V34.1846V34.6846H53.1172H57.7164C57.979 34.6846 58.192 34.8975 58.192 35.1602V54.6717C58.192 54.9344 57.979 55.1473 57.7164 55.1473H53.1172H52.6172V55.6473V64.8457Z" fill="#00CFCC" stroke="#00CFCC"/>
<path d="M57.7158 57.935C57.4532 57.935 57.2402 57.722 57.2402 57.4594V54.672C57.2402 54.4093 57.4532 54.1964 57.7158 54.1964C57.9785 54.1964 58.1914 54.4093 58.1914 54.672V57.4594C58.1914 57.722 57.9785 57.935 57.7158 57.935Z" fill="#00CFCC" stroke="#00CFCC"/>
<path d="M57.7158 35.6359C57.4532 35.6359 57.2402 35.423 57.2402 35.1603V32.3729C57.2402 32.1103 57.4532 31.8973 57.7158 31.8973C57.9785 31.8973 58.1914 32.1103 58.1914 32.3729V35.1603C58.1914 35.423 57.9785 35.6359 57.7158 35.6359Z" fill="#00CFCC" stroke="#00CFCC"/>
<path d="M57.24 6.8681V6.3681H56.74H21.4795C21.2168 6.3681 21.0039 6.15518 21.0039 5.89252C21.0039 5.62986 21.2168 5.41693 21.4795 5.41693H57.7156C57.9782 5.41693 58.1912 5.62986 58.1912 5.89252V24.0106C58.1912 24.2732 57.9782 24.4861 57.7156 24.4861C57.4529 24.4861 57.24 24.2732 57.24 24.0106V6.8681Z" fill="#00CFCC" stroke="#00CFCC"/>
<path d="M10.8066 57.8776V58.3776H11.3066H29.8428C30.1054 58.3776 30.3184 58.5905 30.3184 58.8531C30.3184 59.1158 30.1054 59.3287 29.8428 59.3287H10.3311C10.0684 59.3287 9.85547 59.1158 9.85547 58.8531V43.5225C9.85547 43.2598 10.0684 43.0469 10.3311 43.0469C10.5937 43.0469 10.8066 43.2598 10.8066 43.5225V57.8776Z" fill="#00CFCC" stroke="#00CFCC"/>
<path d="M46.5652 59.3286H39.5967C39.334 59.3286 39.1211 59.1157 39.1211 58.8531C39.1211 58.5904 39.334 58.3775 39.5967 58.3775H46.5652C46.8278 58.3775 47.0407 58.5904 47.0407 58.8531C47.0407 59.1157 46.8278 59.3286 46.5652 59.3286Z" fill="#00CFCC" stroke="#00CFCC"/>
<path d="M39.8109 59.2788L25.8747 66.2469C25.8746 66.2469 25.8746 66.247 25.8745 66.247C25.8064 66.2809 25.7335 66.2972 25.6615 66.2972C25.5315 66.2972 25.4044 66.2443 25.3121 66.1447C25.1686 65.9897 25.1445 65.7584 25.2533 65.577C25.2533 65.577 25.2533 65.577 25.2533 65.5769L29.4344 58.6086C29.5695 58.3834 29.8616 58.3103 30.0869 58.4455L30.087 58.4456C30.312 58.5805 30.3852 58.8726 30.25 59.098C30.25 59.0981 30.25 59.0981 30.25 59.0981L27.7927 63.1937L26.9093 64.666L28.445 63.8982L39.3854 58.428L39.3856 58.4279C39.6203 58.3105 39.906 58.4056 40.0235 58.6407C40.141 58.8756 40.0458 59.1613 39.8109 59.2788C39.8109 59.2788 39.8109 59.2788 39.8109 59.2788Z" fill="#00CFCC" stroke="#00CFCC"/>
<path d="M29.8359 40.3726C29.8359 41.063 30.3956 41.6226 31.0859 41.6226C31.7763 41.6226 32.3359 41.063 32.3359 40.3726L29.8359 40.3726ZM29.8359 24.9584L29.8359 40.3726L32.3359 40.3726L32.3359 24.9584L29.8359 24.9584Z" fill="#FFDD21"/>
<path d="M28.1504 38.1706L37.6926 38.1706" stroke="#FFDD21" stroke-width="2.5" stroke-linecap="round"/>
<path d="M28.1504 33.7665L34.0225 33.7665" stroke="#FFDD21" stroke-width="2.5" stroke-linecap="round"/>
<path d="M31.0859 24.9584H35.49C37.9223 24.9584 39.8941 26.9301 39.8941 29.3625V29.3625C39.8941 31.7948 37.9223 33.7665 35.49 33.7665H31.0859V24.9584Z" stroke="#FFDD21" stroke-width="2.5"/>
</svg>
