<svg width="27" height="28" viewBox="0 0 27 28" fill="none" xmlns="http://www.w3.org/2000/svg">
<path d="M11.4021 3C8.99181 3 6.58344 3.91465 4.75006 5.74803C1.08328 9.41486 1.08334 15.3956 4.75006 19.0623C6.82032 21.1326 9.62525 22.0373 12.335 21.7698L11.6049 19.8634C9.63164 19.9175 7.64274 19.1968 6.12915 17.6832C3.20643 14.7605 3.20636 10.0499 6.12915 7.12712C7.59053 5.66576 9.49412 4.9368 11.4021 4.93681C13.3101 4.93681 15.2137 5.66576 16.6751 7.12712C18.1872 8.63926 18.9078 10.6288 18.8553 12.6029L20.7617 13.333C21.0259 10.6235 20.1219 7.81573 18.0542 5.74803C16.2208 3.91466 13.8125 3 11.4021 3ZM11.4021 6.24491C9.82225 6.2449 8.24155 6.8501 7.04178 8.04989C4.6422 10.4494 4.6422 14.3711 7.04178 16.7706C8.164 17.8928 9.62129 18.4828 11.0979 18.5553L10.2968 16.4766C9.61256 16.2891 8.96189 15.9325 8.42087 15.3915C6.76535 13.736 6.76535 11.0743 8.42087 9.41886C9.24865 8.59108 10.3246 8.18171 11.4021 8.18172C12.4797 8.18172 13.5556 8.59108 14.3834 9.41886C14.9276 9.963 15.2921 10.6149 15.4785 11.305L17.5472 12.106C17.4746 10.6294 16.8847 9.17211 15.7625 8.04989C14.5627 6.85012 12.982 6.24492 11.4021 6.24491ZM9.85067 9.91572C9.69513 9.9212 9.54316 9.96389 9.40752 10.0402C9.27187 10.1165 9.1565 10.2243 9.07108 10.3544C8.98567 10.4845 8.93269 10.6332 8.91659 10.788C8.9005 10.9428 8.92175 11.0992 8.97857 11.2441L14.718 26.1504C14.7841 26.3244 14.8986 26.4758 15.0481 26.5867C15.1975 26.6976 15.3756 26.7634 15.5613 26.7762C15.7469 26.789 15.9324 26.7483 16.0956 26.659C16.2589 26.5696 16.3931 26.4354 16.4824 26.2721L18.115 23.2503L21.5932 26.7183C21.7754 26.8985 22.0214 26.9995 22.2776 26.9995C22.5339 26.9995 22.7799 26.8985 22.9621 26.7183L25.7203 23.9702C25.811 23.8798 25.883 23.7724 25.9322 23.654C25.9813 23.5357 26.0066 23.4088 26.0066 23.2807C26.0066 23.1526 25.9813 23.0257 25.9322 22.9074C25.883 22.7891 25.811 22.6816 25.7203 22.5912L22.2421 19.113L25.264 17.4804C25.4276 17.392 25.5625 17.2586 25.6526 17.0959C25.7428 16.9332 25.7844 16.7481 25.7727 16.5625C25.761 16.3769 25.6963 16.1986 25.5864 16.0485C25.4765 15.8985 25.3259 15.7831 25.1524 15.716L10.236 9.98672C10.1137 9.93719 9.98259 9.91303 9.85067 9.91572ZM11.5745 12.5826L22.4855 16.7706L20.1735 18.028C20.0402 18.0995 19.9253 18.2011 19.8381 18.3248C19.7509 18.4484 19.6937 18.5907 19.6711 18.7403C19.6485 18.8899 19.661 19.0427 19.7077 19.1866C19.7545 19.3305 19.8341 19.4616 19.9403 19.5693L23.6517 23.2807L22.2726 24.6598L18.5714 20.9484C18.4643 20.8398 18.3333 20.7578 18.1887 20.7091C18.0442 20.6604 17.8902 20.6463 17.7393 20.668C17.5883 20.6897 17.4445 20.7466 17.3196 20.8341C17.1946 20.9215 17.092 21.0371 17.0199 21.1715L15.7726 23.4835L11.5745 12.5826Z" fill="black" stroke="white" stroke-width="0.1"/>
</svg>
