<svg width="52" height="40" viewBox="0 0 52 40" fill="none" xmlns="http://www.w3.org/2000/svg">
<path d="M46.9592 23.2501L46.7668 22.5939C45.9335 19.7475 43.691 17.7494 40.7689 17.2482C39.6155 17.0503 38.3374 16.9176 36.8598 16.8428C36.0136 16.8004 35.301 16.6064 34.55 16.214L29.5574 13.605C28.4873 13.0455 27.4267 12.7722 26.2189 12.7443L18.3401 12.5628C17.2774 12.5364 16.3708 12.7004 15.387 13.0879L9.046 15.5832L6.76412 15.9682C5.30504 16.214 4.17258 17.2043 3.73375 18.6175L3.16378 20.4516C2.5973 22.2742 3.56271 24.2031 5.36139 24.8428C6.20512 25.143 7.22488 25.3146 8.47952 25.3689C9.02455 25.3819 9.49529 24.9655 9.51873 24.4155C9.54266 23.865 9.11531 23.4002 8.56529 23.3763C7.51311 23.3309 6.68334 23.1958 6.02959 22.9634C5.2432 22.6836 4.82084 21.8409 5.06867 21.044L5.63864 19.2095C5.85307 18.5198 6.38364 18.0556 7.09573 17.9354L9.48033 17.5325C9.54865 17.5215 9.61547 17.5025 9.6793 17.4776L16.117 14.9444C16.8525 14.6552 17.5053 14.5405 18.2937 14.5569L26.1725 14.7385C27.0751 14.7594 27.8336 14.9554 28.6329 15.3728L33.6255 17.9818C34.6313 18.5073 35.6272 18.7781 36.7596 18.8345C38.1559 18.9053 39.3566 19.0294 40.4308 19.2139C42.4528 19.56 44.0326 20.879 44.7267 22.7729C43.7115 22.9813 42.7146 23.1893 41.7348 23.3962C41.1957 23.5104 40.8516 24.0395 40.9653 24.5785C41.0646 25.0478 41.479 25.3699 41.9402 25.3694C42.0085 25.3694 42.0778 25.3624 42.1477 25.348C43.4666 25.0687 44.816 24.789 46.1998 24.5077C46.4735 24.4524 46.7114 24.2848 46.8555 24.0455C47.0006 23.8061 47.038 23.5179 46.9592 23.2501Z" fill="white"/>
<path d="M37.1249 21.0212C35.4858 21.0212 34.1523 22.3547 34.1523 23.9938C34.1523 25.6324 35.4858 26.9658 37.1249 26.9658C38.764 26.9658 40.0974 25.6324 40.0974 23.9938C40.0969 22.3547 38.764 21.0212 37.1249 21.0212ZM37.1249 24.9711C36.5858 24.9711 36.147 24.5328 36.147 23.9938C36.147 23.4547 36.5858 23.0159 37.1249 23.0159C37.6639 23.0159 38.1027 23.4547 38.1027 23.9938C38.1027 24.5328 37.6639 24.9711 37.1249 24.9711Z" fill="white"/>
<path d="M13.3085 21.0212C11.6694 21.0212 10.3359 22.3547 10.3359 23.9938C10.3359 25.6324 11.6694 26.9658 13.3085 26.9658C14.9471 26.9658 16.2805 25.6324 16.2805 23.9938C16.2805 22.3547 14.9471 21.0212 13.3085 21.0212ZM13.3085 24.9711C12.7694 24.9711 12.3306 24.5328 12.3306 23.9938C12.3306 23.4547 12.7694 23.0159 13.3085 23.0159C13.8475 23.0159 14.2858 23.4547 14.2858 23.9938C14.2858 24.5328 13.8475 24.9711 13.3085 24.9711Z" fill="white"/>
<path d="M31.565 23.5977H18.718C18.1675 23.5977 17.7207 24.0445 17.7207 24.595C17.7207 25.1455 18.1675 25.5923 18.718 25.5923H31.565C32.1156 25.5923 32.5624 25.1455 32.5624 24.595C32.5624 24.0445 32.1161 23.5977 31.565 23.5977Z" fill="white"/>
</svg>
