<svg width="52" height="40" viewBox="0 0 52 40" fill="none" xmlns="http://www.w3.org/2000/svg">
<path d="M14.2286 12.9382V13.0879L14.3722 13.1301C16.3702 13.7174 17.8 15.4063 17.8 17.4706C17.8 19.5349 16.3702 21.2238 14.3722 21.8111L14.2286 21.8533V22.0029V29.6471C14.2286 30.2706 13.6856 30.8 13 30.8C12.3144 30.8 11.7714 30.2706 11.7714 29.6471V22.0029V21.8533L11.6278 21.8111C9.62976 21.2238 8.2 19.5349 8.2 17.4706C8.2 15.4063 9.62976 13.7174 11.6278 13.1301L11.7714 13.0879V12.9382V9.35294C11.7714 8.72939 12.3144 8.2 13 8.2C13.6856 8.2 14.2286 8.72939 14.2286 9.35294V12.9382ZM10.6571 17.4706C10.6571 18.7412 11.6856 19.7 13 19.7C14.3144 19.7 15.3429 18.7412 15.3429 17.4706C15.3429 16.2 14.3144 15.2412 13 15.2412C11.6856 15.2412 10.6571 16.2 10.6571 17.4706Z" fill="white" stroke="#00CFCC" stroke-width="0.4"/>
<path d="M26.2286 16.9971V17.1467L26.3722 17.1889C28.3702 17.7762 29.8 19.4651 29.8 21.5294C29.8 23.5937 28.3702 25.2826 26.3722 25.8699L26.2286 25.9121V26.0618V29.6471C26.2286 30.2706 25.6856 30.8 25 30.8C24.3144 30.8 23.7714 30.2706 23.7714 29.6471V26.0618V25.9121L23.6278 25.8699C21.6298 25.2826 20.2 23.5937 20.2 21.5294C20.2 19.4651 21.6298 17.7762 23.6278 17.1889L23.7714 17.1467V16.9971V9.35294C23.7714 8.72939 24.3144 8.2 25 8.2C25.6856 8.2 26.2286 8.72939 26.2286 9.35294V16.9971ZM22.6571 21.5294C22.6571 22.8 23.6856 23.7588 25 23.7588C26.3144 23.7588 27.3429 22.8 27.3429 21.5294C27.3429 20.2588 26.3144 19.3 25 19.3C23.6856 19.3 22.6571 20.2588 22.6571 21.5294Z" fill="white" stroke="#00CFCC" stroke-width="0.4"/>
<path d="M38.2286 14.9676V15.1173L38.3722 15.1595C40.3702 15.7468 41.8 17.4357 41.8 19.5C41.8 21.5643 40.3702 23.2532 38.3722 23.8405L38.2286 23.8827V24.0324V29.6471C38.2286 30.2706 37.6856 30.8 37 30.8C36.3144 30.8 35.7714 30.2706 35.7714 29.6471V24.0324V23.8827L35.6278 23.8405C33.6298 23.2532 32.2 21.5643 32.2 19.5C32.2 17.4357 33.6298 15.7468 35.6278 15.1595L35.7714 15.1173V14.9676V9.35294C35.7714 8.72939 36.3144 8.2 37 8.2C37.6856 8.2 38.2286 8.72939 38.2286 9.35294V14.9676ZM34.6571 19.5C34.6571 20.7706 35.6856 21.7294 37 21.7294C38.3144 21.7294 39.3429 20.7706 39.3429 19.5C39.3429 18.2294 38.3144 17.2706 37 17.2706C35.6856 17.2706 34.6571 18.2294 34.6571 19.5Z" fill="white" stroke="#00CFCC" stroke-width="0.4"/>
</svg>
