<svg width="66" height="66" viewBox="0 0 66 66" fill="none" xmlns="http://www.w3.org/2000/svg">
<path d="M24.8364 37.677C24.5276 37.6783 24.2317 37.8017 24.0135 38.0204C23.7953 38.239 23.6725 38.535 23.6719 38.8439V64.5691C23.6725 64.878 23.7953 65.174 24.0135 65.3926C24.2317 65.6112 24.5276 65.7347 24.8364 65.7359H64.5888C64.8977 65.7347 65.1935 65.6112 65.4117 65.3926C65.6299 65.174 65.7527 64.878 65.7533 64.5691V38.8439C65.7527 38.535 65.6299 38.239 65.4117 38.0204C65.1935 37.8017 64.8977 37.6783 64.5888 37.677H24.8364ZM26.0101 40.0176H63.4242V42.8444L44.9284 53.5242L26.0101 42.8376V40.0176ZM26.0101 45.5229L44.3598 55.8874C44.5378 55.9878 44.739 56.0399 44.9433 56.0383C45.1476 56.0367 45.348 55.9817 45.5244 55.8786L63.4242 45.5506V63.3958H26.0101V45.5229Z" fill="#00CFCC"/>
<path d="M21.7411 0.262895C21.7029 0.26179 21.6649 0.262538 21.6269 0.265322C21.2379 0.291834 20.8885 0.513133 20.6952 0.852049L0.447971 35.9257C0.000981241 36.7042 0.561842 37.6752 1.45953 37.6771H16.9664L10.4768 61.9204C10.1209 63.2418 11.935 63.9941 12.6187 62.8087L21.177 47.98C21.4994 47.4213 21.3083 46.707 20.75 46.3838C20.1913 46.0617 19.477 46.2526 19.1539 46.8106L15.0254 53.9556L19.6266 36.807C19.823 36.0644 19.2622 35.3373 18.494 35.3388H3.47809L18.2793 9.69799L13.6873 26.8466C13.4857 27.5906 14.0467 28.3228 14.8176 28.3217H29.8358L26.7943 33.5851C26.6396 33.8537 26.598 34.1727 26.6785 34.472C26.759 34.7713 26.955 35.0263 27.2236 35.1812C27.4919 35.336 27.8107 35.378 28.1099 35.2979C28.4092 35.2179 28.6645 35.0225 28.8197 34.7544L32.8728 27.7349C33.3213 26.9538 32.7552 25.9801 31.8544 25.9835H16.3384L22.8371 1.73355C23.0318 1.00451 22.4953 0.284546 21.741 0.262895H21.7411Z" fill="#FFDD21"/>
</svg>
