<svg width="52" height="40" viewBox="0 0 52 40" fill="none" xmlns="http://www.w3.org/2000/svg">
<path d="M23.2103 3.26345C23.408 3.43988 23.5071 3.67145 23.5071 3.90115C23.5071 4.13235 23.408 4.3643 23.2103 4.53884C18.5747 8.67741 16.0221 14.1669 16.0221 19.9991C16.0221 25.8312 18.5747 31.3223 23.2103 35.4608C23.6061 35.8122 23.6061 36.3834 23.2103 36.7351C22.8158 37.0883 22.1766 37.0883 21.7817 36.7351C16.7629 32.2584 14 26.3148 14 19.9995C14 13.686 16.7625 7.74203 21.7817 3.26383C22.1766 2.91212 22.8158 2.91212 23.2103 3.26345ZM25.6118 6.68085C26.0054 6.32914 26.6455 6.32914 27.0413 6.68085C27.239 6.85727 27.3372 7.08885 27.3372 7.31854C27.3372 7.54974 27.2394 7.7817 27.0413 7.95623C23.4292 11.1787 21.4418 15.457 21.4418 19.9987C21.4418 24.5438 23.4292 28.8187 27.0413 32.0431C27.4358 32.3944 27.4358 32.9656 27.0413 33.3173C26.6455 33.6705 26.0054 33.6705 25.6118 33.3173C21.6191 29.7549 19.42 25.0251 19.42 19.9991C19.4205 14.9761 21.6195 10.2448 25.6118 6.68085ZM29.4406 10.1016C29.8347 9.74728 30.4743 9.74728 30.8701 10.1001C31.0699 10.2765 31.1668 10.5081 31.1668 10.7378C31.1668 10.9675 31.0699 11.1995 30.8718 11.3755C28.2871 13.6837 26.8631 16.7483 26.8631 19.9991C26.8631 23.2533 28.2867 26.3144 30.8718 28.6257C31.2659 28.977 31.2659 29.5482 30.8701 29.8999C30.4743 30.2516 29.8347 30.2513 29.4406 29.8999C26.474 27.2502 24.8409 23.7331 24.8409 19.9991C24.8409 16.2651 26.474 12.751 29.4406 10.1016ZM33.2736 13.5209C33.6694 13.1677 34.3095 13.1677 34.7032 13.5209C34.9013 13.6958 34.9999 13.927 34.9999 14.1586C34.9999 14.3883 34.9013 14.6199 34.7032 14.7948C33.145 16.1873 32.2848 18.0358 32.2848 19.9991C32.2848 21.9628 33.145 23.8128 34.7032 25.2034C35.099 25.5566 35.099 26.1259 34.7032 26.4791C34.3095 26.8324 33.6694 26.8324 33.2736 26.4791C31.3311 24.747 30.2639 22.4456 30.2639 19.9991C30.2639 17.5541 31.3311 15.253 33.2736 13.5209Z" fill="white"/>
</svg>
