<svg width="27" height="28" viewBox="0 0 27 28" fill="none" xmlns="http://www.w3.org/2000/svg">
<path d="M16.7815 10.0052C16.6276 10.0261 16.4853 10.1007 16.3783 10.2165L11.4263 15.3154L9.19086 13.0136C9.12979 12.9416 9.05503 12.8832 8.9712 12.8421C8.88737 12.801 8.79624 12.778 8.70344 12.7746C8.61065 12.7712 8.51816 12.7874 8.43169 12.8223C8.34522 12.8571 8.26661 12.9098 8.20071 12.9772C8.13481 13.0446 8.08302 13.1251 8.04855 13.2139C8.01407 13.3026 7.99764 13.3978 8.00027 13.4933C8.0029 13.5889 8.02453 13.6829 8.06383 13.7695C8.10313 13.8561 8.15926 13.9336 8.22876 13.997L10.9453 16.7941C11.0084 16.8593 11.0833 16.911 11.1659 16.9463C11.2484 16.9816 11.3369 16.9998 11.4263 16.9998C11.5157 16.9998 11.6042 16.9816 11.6868 16.9463C11.7693 16.911 11.8443 16.8593 11.9074 16.7941L17.3404 11.1998C17.4423 11.0975 17.5104 10.9649 17.5351 10.8206C17.5598 10.6763 17.5399 10.5276 17.4782 10.3956C17.4164 10.2636 17.3159 10.1549 17.1909 10.0848C17.0659 10.0148 16.9227 9.98694 16.7815 10.0052Z" fill="black" stroke="black" stroke-width="0.6"/>
<circle cx="13" cy="12.9998" r="12" stroke="black" stroke-width="2"/>
</svg>
