<svg width="52" height="40" viewBox="0 0 52 40" fill="none" xmlns="http://www.w3.org/2000/svg">
<path d="M22.9861 5.0001C22.6802 4.99454 22.5148 5.23093 22.4479 5.39943L21.5104 8.66328C20.7888 8.88694 20.0983 9.16506 19.4444 9.514L16.4757 7.86467C16.2648 7.75261 15.9821 7.79728 15.816 7.96883L12.9688 10.816C12.8027 10.9863 12.7656 11.2684 12.882 11.4758L14.5139 14.4271C14.1625 15.0864 13.8698 15.7825 13.6458 16.5105L10.3993 17.4306C10.1692 17.4981 9.99785 17.729 10 17.9688V22.014C9.9978 22.2537 10.1692 22.4847 10.3993 22.5521L13.6458 23.4723C13.8705 24.2024 14.1785 24.8946 14.5313 25.5556L12.882 28.507C12.7572 28.7179 12.7949 29.0115 12.9688 29.1841L15.816 32.0313C15.9862 32.1973 16.2683 32.2344 16.4757 32.1181L19.4444 30.4688C20.0988 30.818 20.7882 31.1131 21.5104 31.3368L22.4479 34.5833C22.509 34.8197 22.7419 35.0001 22.9861 35H27.0138C27.258 35.0001 27.491 34.8197 27.552 34.5833L28.4895 31.3368C29.2117 31.1131 29.9011 30.818 30.5555 30.4688L33.5242 32.1181C33.7316 32.2344 34.0137 32.1973 34.184 32.0313L37.0312 29.1841C37.205 29.0115 37.2427 28.7179 37.118 28.507L35.4687 25.5556C35.8214 24.8946 36.1294 24.2024 36.3541 23.4723L39.6006 22.5521C39.8307 22.4847 40.0021 22.2537 39.9999 22.014V17.9688C40.0021 17.729 39.8307 17.4981 39.6006 17.4306L36.3541 16.5105C36.1301 15.7825 35.8374 15.0864 35.486 14.4271L37.118 11.4758C37.2343 11.2684 37.1972 10.9863 37.0312 10.816L34.184 7.96883C34.0178 7.79728 33.7352 7.75261 33.5242 7.86467L30.5555 9.514C29.9016 9.16506 29.2112 8.88694 28.4895 8.66328L27.552 5.39943C27.4846 5.16932 27.2536 4.99793 27.0138 5.0001H22.9861ZM23.3854 6.1112H26.6145L27.4826 9.20143C27.5341 9.38227 27.6837 9.53189 27.8645 9.58345C28.7301 9.82189 29.5629 10.1714 30.3298 10.6077C30.4936 10.6984 30.7042 10.6984 30.868 10.6077L33.6978 9.04522L35.9548 11.3022L34.3749 14.132C34.2842 14.2959 34.2842 14.5064 34.3749 14.6702C34.8112 15.4371 35.1608 16.2525 35.3992 17.1181C35.4508 17.2989 35.6004 17.4485 35.7812 17.5001L38.8888 18.3855V21.5973L35.7812 22.4827C35.6004 22.5344 35.4508 22.6839 35.3992 22.8646C35.1608 23.7302 34.8112 24.5457 34.3749 25.3125C34.278 25.4805 34.278 25.7002 34.3749 25.8681L35.9374 28.698L33.6978 30.9375L30.868 29.375C30.7042 29.2843 30.4936 29.2843 30.3298 29.375C29.5629 29.8113 28.7301 30.1609 27.8645 30.3993C27.6837 30.451 27.5342 30.6005 27.4826 30.7813L26.5972 33.8889H23.4027L22.5173 30.7813C22.4658 30.6005 22.3162 30.4509 22.1354 30.3993C21.2698 30.1609 20.437 29.8113 19.6701 29.375C19.5063 29.2843 19.2958 29.2843 19.1319 29.375L16.3021 30.9375L14.0625 28.698L15.625 25.8681C15.7219 25.7002 15.7219 25.4805 15.625 25.3125C15.1887 24.5457 14.8392 23.7302 14.6007 22.8646C14.5491 22.6839 14.3996 22.5343 14.2188 22.4827L11.1111 21.5973V18.3855L14.2188 17.5001C14.3996 17.4484 14.5491 17.2989 14.6007 17.1181C14.8392 16.2525 15.1887 15.4371 15.625 14.6702C15.7157 14.5064 15.7157 14.2959 15.625 14.132L14.0451 11.3022L16.3021 9.04522L19.1319 10.6077C19.2958 10.6984 19.5063 10.6984 19.6701 10.6077C20.437 10.1714 21.2698 9.82189 22.1354 9.58345C22.3162 9.53178 22.4658 9.38227 22.5173 9.20143L23.3854 6.1112ZM25 14.4445C21.9383 14.4445 19.4444 16.9384 19.4444 20.0001C19.4444 23.0617 21.9383 25.5556 25 25.5556C28.0616 25.5556 30.5555 23.0617 30.5555 20.0001C30.5555 16.9384 28.0616 14.4445 25 14.4445ZM25 15.5556C27.4611 15.5556 29.4444 17.5389 29.4444 20.0001C29.4444 22.4612 27.4611 24.4445 25 24.4445C22.5388 24.4445 20.5555 22.4612 20.5555 20.0001C20.5555 17.5389 22.5388 15.5556 25 15.5556Z" fill="white" stroke="white"/>
</svg>
