<svg width="52" height="40" viewBox="0 0 52 40" fill="none" xmlns="http://www.w3.org/2000/svg">
<path d="M12.2906 24.7228C12.5243 24.7593 12.7605 24.7772 12.9971 24.7764H13.1964H13.3233L13.4138 24.8659C13.6828 25.8877 14.0499 26.8819 14.51 27.835C17.0826 33.0309 20.688 35.8837 24.9728 36H25.0453C29.2757 35.8569 32.863 33.0309 35.4357 27.835C35.9271 26.8355 36.3155 25.7899 36.5952 24.7138C36.6776 24.7389 36.7628 24.7539 36.8489 24.7585H37.0029C37.2395 24.7593 37.4757 24.7413 37.7094 24.7049C40.2368 24.222 41.8765 22.022 41.9852 18.9098C42.0816 17.6731 41.7054 16.4455 40.9308 15.469C40.1562 14.4924 39.0393 13.8375 37.8 13.6333C37.6742 13.6113 37.5454 13.6113 37.4196 13.6333V13.5707C37.4196 7.24797 32.4101 3 24.9638 3C17.5175 3 12.5261 7.31057 12.5261 13.6244V13.7049C12.418 13.6884 12.308 13.6884 12.2 13.7049C10.9607 13.9091 9.8438 14.5639 9.0692 15.5405C8.2946 16.5171 7.91845 17.7446 8.01482 18.9813C8.12353 22.0219 9.76316 24.2398 12.2906 24.7228ZM39.7748 18.8561C39.7024 20.9041 38.7693 22.2992 37.3018 22.5854H37.021C37.3424 20.3284 37.4788 18.0494 37.4286 15.7707H37.5464C38.238 15.923 38.8481 16.3223 39.2595 16.8918C39.6709 17.4614 39.8544 18.161 39.7748 18.8561ZM14.7274 14.9211C14.7274 14.474 14.7274 14.0268 14.7274 13.6333C14.7274 8.53577 18.7404 5.24472 24.9547 5.24472C31.169 5.24472 35.2092 8.52683 35.2092 13.6244C35.2092 14.0358 35.2092 14.4561 35.2092 14.8943C35.2092 18.5967 35.2726 23.2024 33.3975 26.887C31.1781 31.3585 28.3246 33.7195 24.9547 33.8358C20.9779 33.7016 18.3509 30.4821 16.8018 27.5756C17.974 28.1843 19.253 28.5667 20.5703 28.7024C20.672 29.3899 21.0133 30.0209 21.5354 30.4867C22.0575 30.9526 22.7278 31.2242 23.4308 31.2548C24.1339 31.2854 24.8258 31.0731 25.3874 30.6544C25.949 30.2357 26.3452 29.6369 26.5079 28.9609C26.6705 28.2849 26.5893 27.5742 26.2784 26.9509C25.9674 26.3276 25.4461 25.8309 24.8042 25.5461C24.1623 25.2614 23.4399 25.2064 22.7613 25.3908C22.0828 25.5751 21.4906 25.9872 21.0866 26.5561C18.9021 26.3895 16.8628 25.4116 15.3796 23.8195C14.8107 20.8887 14.5918 17.9022 14.7274 14.9211ZM23.5687 27.4415C23.7339 27.4397 23.8959 27.4864 24.0342 27.5758C24.1724 27.6651 24.2806 27.7929 24.3451 27.9431C24.4096 28.0933 24.4274 28.259 24.3963 28.4192C24.3651 28.5794 24.2865 28.7268 24.1703 28.8428C24.0541 28.9587 23.9056 29.038 23.7437 29.0705C23.5818 29.1029 23.4138 29.0872 23.261 29.0252C23.1082 28.9632 22.9775 28.8577 22.8855 28.7222C22.7935 28.5868 22.7444 28.4273 22.7444 28.2642C22.7444 28.0476 22.8309 27.8396 22.9853 27.6856C23.1396 27.5315 23.3493 27.4438 23.5687 27.4415ZM12.4536 15.8154H12.5261C12.4765 18.0879 12.6097 20.3606 12.9247 22.6122H12.7254C11.2307 22.326 10.2976 20.9309 10.2252 18.874C10.1523 18.1844 10.3379 17.4925 10.7469 16.9289C11.1558 16.3653 11.7598 15.9692 12.4446 15.8154H12.4536Z" fill="white"/>
</svg>
