<svg width="34" height="33" viewBox="0 0 34 33" fill="none" xmlns="http://www.w3.org/2000/svg">
<path d="M4.29056 21.7228C4.52425 21.7593 4.76054 21.7772 4.99714 21.7764H5.19643H5.32325L5.41384 21.8659C5.68284 22.8877 6.04987 23.8819 6.50995 24.835C9.08264 30.0309 12.688 32.8837 16.9728 33H17.0453C21.2757 32.8569 24.863 30.0309 27.4357 24.835C27.9271 23.8355 28.3155 22.7899 28.5952 21.7138C28.6776 21.7389 28.7628 21.7539 28.8489 21.7585H29.0029C29.2395 21.7593 29.4757 21.7413 29.7094 21.7049C32.2368 21.222 33.8765 19.022 33.9852 15.9098C34.0816 14.6731 33.7054 13.4455 32.9308 12.469C32.1562 11.4924 31.0393 10.8375 29.8 10.6333C29.6742 10.6113 29.5454 10.6113 29.4196 10.6333V10.5707C29.4196 4.24797 24.4101 0 16.9638 0C9.51746 0 4.52608 4.31057 4.52608 10.6244V10.7049C4.41802 10.6884 4.30804 10.6884 4.19997 10.7049C2.96071 10.9091 1.8438 11.5639 1.0692 12.5405C0.294598 13.5171 -0.0815523 14.7446 0.0148215 15.9813C0.123527 19.0219 1.76316 21.2398 4.29056 21.7228ZM31.7748 15.8561C31.7024 17.9041 30.7693 19.2992 29.3018 19.5854H29.021C29.3424 17.3284 29.4788 15.0494 29.4286 12.7707H29.5464C30.238 12.923 30.8481 13.3223 31.2595 13.8918C31.6709 14.4614 31.8544 15.161 31.7748 15.8561ZM6.72736 11.9211C6.72736 11.474 6.72736 11.0268 6.72736 10.6333C6.72736 5.53577 10.7404 2.24472 16.9547 2.24472C23.169 2.24472 27.2092 5.52683 27.2092 10.6244C27.2092 11.0358 27.2092 11.4561 27.2092 11.8943C27.2092 15.5967 27.2726 20.2024 25.3975 23.887C23.1781 28.3585 20.3246 30.7195 16.9547 30.8358C12.9779 30.7016 10.3509 27.4821 8.80182 24.5756C9.97399 25.1843 11.253 25.5667 12.5703 25.7024C12.672 26.3899 13.0133 27.0209 13.5354 27.4867C14.0575 27.9526 14.7278 28.2242 15.4308 28.2548C16.1339 28.2854 16.8258 28.0731 17.3874 27.6544C17.949 27.2357 18.3452 26.6369 18.5079 25.9609C18.6705 25.2849 18.5893 24.5742 18.2784 23.9509C17.9674 23.3276 17.4461 22.8309 16.8042 22.5461C16.1623 22.2614 15.4399 22.2064 14.7613 22.3908C14.0828 22.5751 13.4906 22.9872 13.0866 23.5561C10.9021 23.3895 8.86279 22.4116 7.37959 20.8195C6.81067 17.8887 6.59177 14.9022 6.72736 11.9211ZM15.5687 24.4415C15.7339 24.4397 15.8959 24.4864 16.0342 24.5758C16.1724 24.6651 16.2806 24.7929 16.3451 24.9431C16.4096 25.0933 16.4274 25.259 16.3963 25.4192C16.3651 25.5794 16.2865 25.7268 16.1703 25.8428C16.0541 25.9587 15.9056 26.038 15.7437 26.0705C15.5818 26.1029 15.4138 26.0872 15.261 26.0252C15.1082 25.9632 14.9775 25.8577 14.8855 25.7222C14.7935 25.5868 14.7444 25.4273 14.7444 25.2642C14.7444 25.0476 14.8309 24.8396 14.9853 24.6856C15.1396 24.5315 15.3493 24.4438 15.5687 24.4415ZM4.45361 12.8154H4.52608C4.47647 15.0879 4.60975 17.3606 4.92467 19.6122H4.72538C3.23068 19.326 2.29763 17.9309 2.22516 15.874C2.1523 15.1844 2.33789 14.4925 2.74686 13.9289C3.15582 13.3653 3.75979 12.9692 4.44455 12.8154H4.45361Z" fill="white"/>
</svg>
