<svg width="330" height="192" viewBox="0 0 330 192" fill="none" xmlns="http://www.w3.org/2000/svg">
<path d="M30.75 116.694L164.988 96.8959M299.225 77.0976L164.988 96.8959M164.988 96.8959L132.353 178.334L197.622 15.4574" stroke="#00CFCC" stroke-width="6"/>
<path d="M30.75 116.694L164.988 96.8959M299.225 77.0976L164.988 96.8959M164.988 96.8959L132.353 178.334L197.622 15.4574" stroke="url(#paint0_linear)" stroke-width="6"/>
<rect x="5.0658" width="229.627" height="130.28" rx="17" transform="matrix(0.8443 -0.512213 0.8443 0.512213 8.77703 124.117)" stroke="#00CFCC" stroke-width="6"/>
<rect x="5.0658" width="229.627" height="130.28" rx="17" transform="matrix(0.8443 -0.512213 0.8443 0.512213 8.77703 124.117)" stroke="url(#paint1_linear)" stroke-width="6"/>
<rect x="5.06579" width="221.93" height="130.28" rx="17" transform="matrix(0.844299 -0.512214 0.844299 0.512214 12.0251 122.146)" stroke="#00CFCC" stroke-width="6"/>
<rect x="5.06579" width="221.93" height="130.28" rx="17" transform="matrix(0.844299 -0.512214 0.844299 0.512214 12.0251 122.146)" stroke="url(#paint2_linear)" stroke-width="6"/>
<rect x="5.06579" width="199.615" height="130.28" rx="17" transform="matrix(0.844299 -0.512214 0.844299 0.512214 21.445 116.431)" stroke="#00CFCC" stroke-width="6"/>
<rect x="5.06579" width="199.615" height="130.28" rx="17" transform="matrix(0.844299 -0.512214 0.844299 0.512214 21.445 116.431)" stroke="url(#paint3_linear)" stroke-width="6"/>
<ellipse rx="48.5464" ry="41.9265" transform="matrix(0.866044 -0.499968 0.866044 0.499968 164.635 96.6914)" fill="white"/>
<ellipse rx="38.7702" ry="33.3854" transform="matrix(0.844298 -0.512214 0.844298 0.512214 164.657 96.6914)" fill="#FFDD21"/>
<circle r="30.3854" transform="matrix(0.844298 -0.512214 0.844298 0.512214 164.658 96.6918)" fill="white" stroke="#FFDD21" stroke-width="6"/>
<path d="M175.265 103.245C173.152 104.526 170.977 105.54 168.737 106.287C166.498 107.033 164.288 107.508 162.107 107.711C159.936 107.919 157.888 107.851 155.962 107.507C154.036 107.162 152.336 106.542 150.861 105.647C148.929 104.475 147.635 103.233 146.981 101.921C146.327 100.609 146.197 99.2786 146.591 97.931C146.997 96.5758 147.818 95.2581 149.052 93.978C150.277 92.6922 151.801 91.4962 153.624 90.3902C156.025 88.9333 158.409 87.8165 160.774 87.0396C163.14 86.2627 165.408 85.793 167.58 85.6305C169.754 85.4547 171.763 85.5523 173.607 85.9234C175.451 86.2945 177.063 86.8987 178.443 87.7359C180.337 88.885 181.358 90.0613 181.506 91.2648C181.657 92.4549 180.607 93.7327 178.357 95.098C177.376 95.693 176.243 96.1726 174.958 96.5368C173.672 96.901 172.498 96.9896 171.435 96.8027L172.718 96.0247C172.92 96.849 172.71 97.6291 172.087 98.3649C171.477 99.0931 170.7 99.7433 169.757 100.315C168.362 101.162 166.895 101.775 165.357 102.154C163.822 102.519 162.332 102.637 160.888 102.509C159.434 102.374 158.155 101.972 157.051 101.303C155.919 100.615 155.259 99.8262 155.072 98.9348C154.898 98.0358 155.134 97.1188 155.781 96.1839C156.418 95.2431 157.409 94.3646 158.754 93.5485C159.571 93.0527 160.555 92.6119 161.704 92.2263C162.857 91.8272 163.871 91.5877 164.745 91.5078L164.781 92.4907L163.039 91.434L166.094 89.5805L171.644 93.0388C172.386 93.4892 173.06 93.7152 173.667 93.7169C174.285 93.711 174.84 93.5593 175.33 93.2618C175.972 92.8728 176.285 92.5212 176.27 92.207C176.245 91.887 176.028 91.5798 175.618 91.2856C175.212 90.9779 174.733 90.6566 174.181 90.3217C172.677 89.4094 171.114 88.8734 169.493 88.7136C167.884 88.5463 166.301 88.6232 164.744 88.9445C163.177 89.26 161.726 89.7071 160.392 90.2857C159.06 90.851 157.929 91.4158 156.999 91.9803C155.365 92.9719 154.092 93.9693 153.18 94.9725C152.272 95.9623 151.73 96.9378 151.554 97.899C151.382 98.8468 151.581 99.7536 152.153 100.619C152.716 101.479 153.655 102.278 154.971 103.015C156.233 103.705 157.566 104.178 158.97 104.435C160.374 104.691 161.826 104.74 163.324 104.582C164.836 104.416 166.358 104.058 167.892 103.508C169.425 102.959 170.947 102.227 172.455 101.311C173.134 100.9 173.764 100.466 174.345 100.009C174.938 99.5454 175.466 99.0804 175.93 98.6143L180.068 99.5685C179.435 100.207 178.712 100.836 177.899 101.456C177.086 102.076 176.208 102.673 175.265 103.245ZM167.032 98.2961C167.85 97.8003 168.371 97.2701 168.597 96.7056C168.836 96.1335 168.47 95.5529 167.499 94.964C166.681 94.4674 165.819 94.2341 164.913 94.2641C164.019 94.2865 163.101 94.5837 162.158 95.1558C161.014 95.8499 160.394 96.5034 160.297 97.1162C160.213 97.7213 160.552 98.2548 161.314 98.7168C162.085 99.1845 162.975 99.3891 163.985 99.3306C164.986 99.2664 166.001 98.9216 167.032 98.2961Z" fill="#FFDD21"/>
<defs>
<linearGradient id="paint0_linear" x1="114.186" y1="66.0758" x2="168.856" y2="156.19" gradientUnits="userSpaceOnUse">
<stop stop-color="white" stop-opacity="0.58"/>
<stop offset="1" stop-color="white" stop-opacity="0"/>
</linearGradient>
<linearGradient id="paint1_linear" x1="117.813" y1="0" x2="117.813" y2="136.28" gradientUnits="userSpaceOnUse">
<stop stop-color="white" stop-opacity="0.58"/>
<stop offset="1" stop-color="white" stop-opacity="0"/>
</linearGradient>
<linearGradient id="paint2_linear" x1="113.965" y1="0" x2="113.965" y2="136.28" gradientUnits="userSpaceOnUse">
<stop stop-color="white" stop-opacity="0.58"/>
<stop offset="1" stop-color="white" stop-opacity="0"/>
</linearGradient>
<linearGradient id="paint3_linear" x1="102.808" y1="0" x2="102.808" y2="136.28" gradientUnits="userSpaceOnUse">
<stop stop-color="white" stop-opacity="0.58"/>
<stop offset="1" stop-color="white" stop-opacity="0"/>
</linearGradient>
</defs>
</svg>
