<svg width="403" height="233" viewBox="0 0 403 233" fill="none" xmlns="http://www.w3.org/2000/svg">
<rect x="5.19626" width="91.7293" height="147.318" rx="17" transform="matrix(0.866043 -0.499968 0.866043 0.499968 26.3211 158.781)" stroke="#00CFCC" stroke-width="6"/>
<rect x="5.19626" width="91.7293" height="147.318" rx="17" transform="matrix(0.866043 -0.499968 0.866043 0.499968 26.3211 158.781)" stroke="url(#paint0_linear)" stroke-width="6"/>
<rect x="5.19627" width="82.7633" height="147.318" rx="17" transform="matrix(0.866045 -0.499967 0.866045 0.499967 30.2019 156.54)" stroke="#00CFCC" stroke-width="6"/>
<rect x="5.19627" width="82.7633" height="147.318" rx="17" transform="matrix(0.866045 -0.499967 0.866045 0.499967 30.2019 156.54)" stroke="url(#paint1_linear)" stroke-width="6"/>
<rect x="-6.01217e-07" y="-3.36203" width="6.72449" height="40.7953" rx="3.36225" transform="matrix(-0.866043 -0.499968 0.866043 -0.499968 61.9253 145.314)" stroke="#00CFCC" stroke-width="6.72449"/>
<rect x="-6.01217e-07" y="-3.36203" width="6.72449" height="40.7953" rx="3.36225" transform="matrix(-0.866043 -0.499968 0.866043 -0.499968 61.9253 145.314)" stroke="url(#paint2_linear)" stroke-width="6.72449"/>
<path d="M83.7933 107.061C82.4705 107.949 82.6455 109.288 84.1844 110.052C85.7232 110.816 88.0431 110.715 89.366 109.826L83.7933 107.061ZM129.795 109.943C131.23 110.772 133.556 110.772 134.991 109.943C136.426 109.115 136.426 107.772 134.991 106.944L129.795 109.943ZM89.366 109.826C90.3927 109.137 92.5829 108.282 95.8745 107.538C99.0799 106.813 103.007 106.268 107.16 106.069C115.58 105.665 124.179 106.701 129.795 109.943L134.991 106.944C127.252 102.476 116.115 101.382 106.552 101.841C101.714 102.073 97.0881 102.708 93.1958 103.587C89.3897 104.447 85.9373 105.621 83.7933 107.061L89.366 109.826Z" fill="#FFDD21"/>
<path d="M67.1493 99.6741C65.8167 100.558 65.977 101.897 67.5074 102.667C69.0378 103.436 71.3588 103.343 72.6914 102.46L67.1493 99.6741ZM145.713 102.995C147.148 103.823 149.474 103.823 150.909 102.995C152.344 102.166 152.344 100.823 150.909 99.9949L145.713 102.995ZM72.6914 102.46C77.8509 99.0392 90.2634 95.7486 104.757 95.1164C119.073 94.4918 134.479 96.5093 145.713 102.995L150.909 99.9949C137.733 92.3884 119.968 90.1983 104.203 90.8861C88.615 91.5661 74.0372 95.1075 67.1493 99.6741L72.6914 102.46Z" fill="#FFDD21"/>
<path d="M83.7933 107.061C82.4705 107.949 82.6455 109.288 84.1844 110.052C85.7232 110.816 88.0431 110.715 89.366 109.826L83.7933 107.061ZM129.795 109.943C131.23 110.772 133.556 110.772 134.991 109.943C136.426 109.115 136.426 107.772 134.991 106.944L129.795 109.943ZM89.366 109.826C90.3927 109.137 92.5829 108.282 95.8745 107.538C99.0799 106.813 103.007 106.268 107.16 106.069C115.58 105.665 124.179 106.701 129.795 109.943L134.991 106.944C127.252 102.476 116.115 101.382 106.552 101.841C101.714 102.073 97.0881 102.708 93.1958 103.587C89.3897 104.447 85.9373 105.621 83.7933 107.061L89.366 109.826Z" fill="#FFDD21"/>
<path d="M67.1493 99.6741C65.8167 100.558 65.977 101.897 67.5074 102.667C69.0378 103.436 71.3588 103.343 72.6914 102.46L67.1493 99.6741ZM145.713 102.995C147.148 103.823 149.474 103.823 150.909 102.995C152.344 102.166 152.344 100.823 150.909 99.9949L145.713 102.995ZM72.6914 102.46C77.8509 99.0392 90.2634 95.7486 104.757 95.1164C119.073 94.4918 134.479 96.5093 145.713 102.995L150.909 99.9949C137.733 92.3884 119.968 90.1983 104.203 90.8861C88.615 91.5661 74.0372 95.1075 67.1493 99.6741L72.6914 102.46Z" fill="#FFDD21"/>
<path d="M252.925 112.55L250.182 110.967L252.475 102.451C252.65 101.814 252.663 101.301 252.516 100.912C252.369 100.522 252.117 100.225 251.761 100.019C251.249 99.7241 250.669 99.5358 250.02 99.4543C249.363 99.3683 248.692 99.3935 248.006 99.5298C247.313 99.6617 246.656 99.9068 246.035 100.265C245.386 100.64 244.937 101.043 244.686 101.474C244.437 101.895 244.378 102.3 244.508 102.69C244.63 103.076 244.933 103.397 245.417 103.655L241.467 105.935C240.32 105.273 239.634 104.524 239.409 103.688C239.183 102.852 239.388 101.988 240.022 101.094C240.655 100.2 241.697 99.3351 243.145 98.4989C244.471 97.7333 245.897 97.1878 247.421 96.8624C248.947 96.5271 250.437 96.4316 251.891 96.5761C253.345 96.7206 254.634 97.1171 255.757 97.7656C256.586 98.2442 257.135 98.7237 257.403 99.2041C257.663 99.6801 257.748 100.212 257.658 100.801C257.56 101.385 257.397 102.079 257.169 102.881L255.641 108.352L254.634 108.129L264.171 102.623L267.146 104.34L252.925 112.55Z" fill="#FFDD21"/>
<path d="M278.258 97.9522L275.655 96.4494L266.823 101.548L263.871 99.844L259.097 89.6924L263.499 87.1513L268.273 97.3028L272.703 94.7454L268.519 92.3302L272.413 90.0823L276.597 92.4975L278.403 91.4549L281.355 93.159L279.549 94.2015L282.152 95.7043L278.258 97.9522Z" fill="#FFDD21"/>
<path d="M275.751 80.0779L287.068 92.8661L290.905 90.6508L279.589 77.8625L275.751 80.0779Z" fill="#FFDD21"/>
<path d="M301.014 84.8152L294.083 72.93L285.392 77.9471L282.417 76.2297L295.228 68.8343L298.203 70.5518L305.162 82.4207L301.014 84.8152Z" fill="#FFDD21"/>
<mask id="path-9-inside-1" fill="white">
<path d="M189.318 113.711C179.752 108.188 179.752 99.2345 189.318 93.712L279.993 41.3659C289.559 35.8434 305.068 35.8434 314.634 41.3659L358.418 66.6425C367.985 72.165 367.985 81.1187 358.418 86.6412L267.744 138.987C258.178 144.51 242.669 144.51 233.103 138.987L228.645 136.414C223.281 133.317 215.734 131.83 208.21 132.387L199.654 133.02L200.836 128.472C201.989 124.035 199.427 119.547 193.933 116.375L189.318 113.711Z"/>
</mask>
<path d="M199.654 133.02L192.387 132.391L190.945 137.942L200.589 137.228L199.654 133.02ZM194.515 96.7118L285.189 44.3657L274.796 38.366L184.122 90.7122L194.515 96.7118ZM309.438 44.3657L353.222 69.6423L363.615 63.6427L319.831 38.366L309.438 44.3657ZM353.222 83.6414L262.548 135.988L272.941 141.987L363.615 89.641L353.222 83.6414ZM199.129 113.375L194.515 110.711L184.122 116.711L188.736 119.374L199.129 113.375ZM238.299 135.988L233.842 133.414L223.449 139.414L227.906 141.987L238.299 135.988ZM207.275 128.179L198.72 128.812L200.589 137.228L209.144 136.595L207.275 128.179ZM206.922 133.65L208.104 129.101L193.569 127.842L192.387 132.391L206.922 133.65ZM233.842 133.414C226.868 129.389 217.057 127.455 207.275 128.179L209.144 136.595C214.411 136.205 219.694 137.246 223.449 139.414L233.842 133.414ZM188.736 119.374C192.583 121.595 194.376 124.737 193.569 127.842L208.104 129.101C209.602 123.334 206.272 117.498 199.129 113.375L188.736 119.374ZM262.548 135.988C255.852 139.853 244.995 139.853 238.299 135.988L227.906 141.987C240.342 149.166 260.505 149.166 272.941 141.987L262.548 135.988ZM353.222 69.6423C359.918 73.508 359.918 79.7756 353.222 83.6414L363.615 89.641C376.051 82.4617 376.051 70.8219 363.615 63.6427L353.222 69.6423ZM285.189 44.3657C291.885 40.4999 302.742 40.4999 309.438 44.3657L319.831 38.366C307.395 31.1868 287.232 31.1868 274.796 38.366L285.189 44.3657ZM184.122 90.7122C171.686 97.8915 171.686 109.531 184.122 116.711L194.515 110.711C187.818 106.845 187.818 100.578 194.515 96.7118L184.122 90.7122Z" fill="#00CFCC" mask="url(#path-9-inside-1)"/>
<path d="M199.654 133.02L192.387 132.391L190.945 137.942L200.589 137.228L199.654 133.02ZM194.515 96.7118L285.189 44.3657L274.796 38.366L184.122 90.7122L194.515 96.7118ZM309.438 44.3657L353.222 69.6423L363.615 63.6427L319.831 38.366L309.438 44.3657ZM353.222 83.6414L262.548 135.988L272.941 141.987L363.615 89.641L353.222 83.6414ZM199.129 113.375L194.515 110.711L184.122 116.711L188.736 119.374L199.129 113.375ZM238.299 135.988L233.842 133.414L223.449 139.414L227.906 141.987L238.299 135.988ZM207.275 128.179L198.72 128.812L200.589 137.228L209.144 136.595L207.275 128.179ZM206.922 133.65L208.104 129.101L193.569 127.842L192.387 132.391L206.922 133.65ZM233.842 133.414C226.868 129.389 217.057 127.455 207.275 128.179L209.144 136.595C214.411 136.205 219.694 137.246 223.449 139.414L233.842 133.414ZM188.736 119.374C192.583 121.595 194.376 124.737 193.569 127.842L208.104 129.101C209.602 123.334 206.272 117.498 199.129 113.375L188.736 119.374ZM262.548 135.988C255.852 139.853 244.995 139.853 238.299 135.988L227.906 141.987C240.342 149.166 260.505 149.166 272.941 141.987L262.548 135.988ZM353.222 69.6423C359.918 73.508 359.918 79.7756 353.222 83.6414L363.615 89.641C376.051 82.4617 376.051 70.8219 363.615 63.6427L353.222 69.6423ZM285.189 44.3657C291.885 40.4999 302.742 40.4999 309.438 44.3657L319.831 38.366C307.395 31.1868 287.232 31.1868 274.796 38.366L285.189 44.3657ZM184.122 90.7122C171.686 97.8915 171.686 109.531 184.122 116.711L194.515 110.711C187.818 106.845 187.818 100.578 194.515 96.7118L184.122 90.7122Z" fill="url(#paint3_linear)" mask="url(#path-9-inside-1)"/>
<mask id="path-11-inside-2" fill="white">
<path d="M191.985 112.17C182.419 106.648 182.419 97.6942 191.985 92.1717L276.781 43.2193C286.347 37.6969 301.856 37.6969 311.422 43.2193L355.207 68.496C364.773 74.0185 364.773 82.9722 355.207 88.4947L270.411 137.447C260.845 142.97 245.336 142.97 235.769 137.447L231.062 134.73C225.84 131.715 218.541 130.221 211.195 130.664L202.863 131.167L203.83 126.752C204.78 122.415 202.203 118.069 196.849 114.978L191.985 112.17Z"/>
</mask>
<path d="M202.863 131.167L195.573 130.635L194.41 135.943L203.627 135.386L202.863 131.167ZM203.83 126.752L211.121 127.284L203.83 126.752ZM197.182 95.1715L281.977 46.2192L271.584 40.2195L186.789 89.1719L197.182 95.1715ZM306.226 46.2192L350.01 71.4958L360.403 65.4962L316.619 40.2195L306.226 46.2192ZM350.01 85.4948L265.215 134.447L275.607 140.447L360.403 91.4945L350.01 85.4948ZM202.046 111.979L197.182 109.171L186.789 115.17L191.653 117.978L202.046 111.979ZM240.966 134.447L236.259 131.73L225.866 137.729L230.573 140.447L240.966 134.447ZM210.432 126.445L202.1 126.948L203.627 135.386L211.959 134.884L210.432 126.445ZM210.154 131.699L211.121 127.284L196.54 126.219L195.573 130.635L210.154 131.699ZM236.259 131.73C229.47 127.811 219.98 125.869 210.432 126.445L211.959 134.884C217.101 134.574 222.211 135.619 225.866 137.729L236.259 131.73ZM191.653 117.978C195.401 120.142 197.205 123.184 196.54 126.219L211.121 127.284C212.356 121.647 209.005 115.997 202.046 111.979L191.653 117.978ZM265.215 134.447C258.519 138.313 247.662 138.313 240.966 134.447L230.573 140.447C243.009 147.626 263.172 147.626 275.607 140.447L265.215 134.447ZM350.01 71.4958C356.707 75.3615 356.707 81.6291 350.01 85.4948L360.403 91.4945C372.839 84.3152 372.839 72.6754 360.403 65.4962L350.01 71.4958ZM281.977 46.2192C288.673 42.3534 299.53 42.3534 306.226 46.2192L316.619 40.2195C304.183 33.0403 284.02 33.0403 271.584 40.2195L281.977 46.2192ZM186.789 89.1719C174.353 96.3511 174.353 107.991 186.789 115.17L197.182 109.171C190.485 105.305 190.485 99.0373 197.182 95.1715L186.789 89.1719Z" fill="#00CFCC" mask="url(#path-11-inside-2)"/>
<path d="M202.863 131.167L195.573 130.635L194.41 135.943L203.627 135.386L202.863 131.167ZM203.83 126.752L211.121 127.284L203.83 126.752ZM197.182 95.1715L281.977 46.2192L271.584 40.2195L186.789 89.1719L197.182 95.1715ZM306.226 46.2192L350.01 71.4958L360.403 65.4962L316.619 40.2195L306.226 46.2192ZM350.01 85.4948L265.215 134.447L275.607 140.447L360.403 91.4945L350.01 85.4948ZM202.046 111.979L197.182 109.171L186.789 115.17L191.653 117.978L202.046 111.979ZM240.966 134.447L236.259 131.73L225.866 137.729L230.573 140.447L240.966 134.447ZM210.432 126.445L202.1 126.948L203.627 135.386L211.959 134.884L210.432 126.445ZM210.154 131.699L211.121 127.284L196.54 126.219L195.573 130.635L210.154 131.699ZM236.259 131.73C229.47 127.811 219.98 125.869 210.432 126.445L211.959 134.884C217.101 134.574 222.211 135.619 225.866 137.729L236.259 131.73ZM191.653 117.978C195.401 120.142 197.205 123.184 196.54 126.219L211.121 127.284C212.356 121.647 209.005 115.997 202.046 111.979L191.653 117.978ZM265.215 134.447C258.519 138.313 247.662 138.313 240.966 134.447L230.573 140.447C243.009 147.626 263.172 147.626 275.607 140.447L265.215 134.447ZM350.01 71.4958C356.707 75.3615 356.707 81.6291 350.01 85.4948L360.403 91.4945C372.839 84.3152 372.839 72.6754 360.403 65.4962L350.01 71.4958ZM281.977 46.2192C288.673 42.3534 299.53 42.3534 306.226 46.2192L316.619 40.2195C304.183 33.0403 284.02 33.0403 271.584 40.2195L281.977 46.2192ZM186.789 89.1719C174.353 96.3511 174.353 107.991 186.789 115.17L197.182 109.171C190.485 105.305 190.485 99.0373 197.182 95.1715L186.789 89.1719Z" fill="url(#paint4_linear)" mask="url(#path-11-inside-2)"/>
<rect x="5.19626" width="110.558" height="84.5565" rx="17" transform="matrix(0.866044 -0.499968 0.866044 0.499968 184.536 99.4722)" stroke="#00CFCC" stroke-width="6"/>
<rect x="5.19626" width="110.558" height="84.5565" rx="17" transform="matrix(0.866044 -0.499968 0.866044 0.499968 184.536 99.4722)" stroke="url(#paint5_linear)" stroke-width="6"/>
<defs>
<linearGradient id="paint0_linear" x1="48.8647" y1="0" x2="48.8647" y2="153.318" gradientUnits="userSpaceOnUse">
<stop stop-color="white" stop-opacity="0.58"/>
<stop offset="1" stop-color="white" stop-opacity="0"/>
</linearGradient>
<linearGradient id="paint1_linear" x1="44.3817" y1="0" x2="44.3817" y2="153.318" gradientUnits="userSpaceOnUse">
<stop stop-color="white" stop-opacity="0.58"/>
<stop offset="1" stop-color="white" stop-opacity="0"/>
</linearGradient>
<linearGradient id="paint2_linear" x1="14.6716" y1="23.4252" x2="-1.83395" y2="23.4252" gradientUnits="userSpaceOnUse">
<stop stop-color="#93EBEA"/>
<stop offset="1" stop-color="#8AE9E8"/>
</linearGradient>
<linearGradient id="paint3_linear" x1="234.656" y1="67.5389" x2="273.863" y2="135.455" gradientUnits="userSpaceOnUse">
<stop stop-color="white" stop-opacity="0.58"/>
<stop offset="1" stop-color="white" stop-opacity="0"/>
</linearGradient>
<linearGradient id="paint4_linear" x1="234.383" y1="67.6955" x2="273.591" y2="135.611" gradientUnits="userSpaceOnUse">
<stop stop-color="white" stop-opacity="0.58"/>
<stop offset="1" stop-color="white" stop-opacity="0"/>
</linearGradient>
<linearGradient id="paint5_linear" x1="58.279" y1="0" x2="58.279" y2="90.5565" gradientUnits="userSpaceOnUse">
<stop stop-color="white" stop-opacity="0.58"/>
<stop offset="1" stop-color="white" stop-opacity="0"/>
</linearGradient>
</defs>
</svg>
